<svg 
 xmlns="http://www.w3.org/2000/svg"
 xmlns:xlink="http://www.w3.org/1999/xlink"
 width="17px" height="19px">
<path fill-rule="evenodd"  fill="rgb(13, 90, 222)"
 d="M12.999,1.999 C13.385,2.395 12.448,1.962 12.999,1.999 C13.273,2.18 15.808,23.283 16.373,16.933 C16.422,16.383 2.854,13.739 2.0,14.0 L12.999,3.0 C13.395,2.614 12.614,1.604 12.999,1.999 Z"/>
<path fill-rule="evenodd"  fill="rgb(255, 255, 255)"
 d="M13.807,0.873 C14.192,1.269 14.184,1.902 13.788,2.288 L1.889,13.842 C1.368,13.446 0.860,14.219 0.475,13.823 C0.90,13.427 0.98,12.794 0.494,12.409 L12.393,0.854 C12.789,0.469 13.422,0.478 13.807,0.873 Z"/>
</svg>